<svg width="32" height="32" viewBox="0 0 32 32" fill="none" xmlns="http://www.w3.org/2000/svg">
<mask id="mask0_23_3004" style="mask-type:alpha" maskUnits="userSpaceOnUse" x="0" y="0" width="32" height="32">
<rect width="32" height="32" fill="#D9D9D9"/>
</mask>
<g mask="url(#mask0_23_3004)">
<path d="M24 29.3333L28 25.3333L27.0667 24.4L24.6667 26.8V21.3333H23.3333V26.8L20.9333 24.4L20 25.3333L24 29.3333ZM16 5.33334L8.1 9.90001L16 14.4667L23.9 9.90001L16 5.33334ZM4 21.3V10.7C4 10.2111 4.11667 9.76667 4.35 9.36667C4.58333 8.96667 4.91111 8.64445 5.33333 8.40001L14.6667 3.03334C14.8889 2.92223 15.1056 2.83334 15.3167 2.76667C15.5278 2.70001 15.7556 2.66667 16 2.66667C16.2444 2.66667 16.4778 2.70001 16.7 2.76667C16.9222 2.83334 17.1333 2.92223 17.3333 3.03334L26.6667 8.40001C27.0889 8.64445 27.4167 8.96667 27.65 9.36667C27.8833 9.76667 28 10.2111 28 10.7V16H25.3333V12.1333L15.9667 17.5333L6.66667 12.1333V21.2667L14.6667 25.9V28.9667L5.33333 23.6C4.91111 23.3556 4.58333 23.0333 4.35 22.6333C4.11667 22.2333 4 21.7889 4 21.3ZM24 32C22.1556 32 20.5833 31.35 19.2833 30.05C17.9833 28.75 17.3333 27.1778 17.3333 25.3333C17.3333 23.4889 17.9833 21.9167 19.2833 20.6167C20.5833 19.3167 22.1556 18.6667 24 18.6667C25.8444 18.6667 27.4167 19.3167 28.7167 20.6167C30.0167 21.9167 30.6667 23.4889 30.6667 25.3333C30.6667 27.1778 30.0167 28.75 28.7167 30.05C27.4167 31.35 25.8444 32 24 32Z" fill="#0058A8"/>
</g>
</svg>
