<svg width="32" height="33" viewBox="0 0 32 33" fill="none" xmlns="http://www.w3.org/2000/svg">
<mask id="mask0_19_1418" style="mask-type:alpha" maskUnits="userSpaceOnUse" x="0" y="0" width="32" height="33">
<rect y="0.5" width="32" height="32" fill="#0058A8"/>
</mask>
<g mask="url(#mask0_19_1418)">
<path d="M16 29.8333C14.1556 29.8333 12.4222 29.4833 10.8 28.7833C9.1778 28.0833 7.76669 27.1333 6.56669 25.9333C5.36669 24.7333 4.41669 23.3222 3.71669 21.7C3.01669 20.0777 2.66669 18.3444 2.66669 16.5C2.66669 14.6555 3.01669 12.9222 3.71669 11.3C4.41669 9.67774 5.36669 8.26663 6.56669 7.06663C7.76669 5.86663 9.1778 4.91663 10.8 4.21663C12.4222 3.51663 14.1556 3.16663 16 3.16663C17.8445 3.16663 19.5778 3.51663 21.2 4.21663C22.8222 4.91663 24.2334 5.86663 25.4334 7.06663C26.6334 8.26663 27.5834 9.67774 28.2834 11.3C28.9834 12.9222 29.3334 14.6555 29.3334 16.5V18.4333C29.3334 19.7444 28.8834 20.8611 27.9834 21.7833C27.0834 22.7055 25.9778 23.1666 24.6667 23.1666C23.8889 23.1666 23.1556 23 22.4667 22.6666C21.7778 22.3333 21.2 21.8555 20.7334 21.2333C20.0889 21.8777 19.3611 22.3611 18.55 22.6833C17.7389 23.0055 16.8889 23.1666 16 23.1666C14.1556 23.1666 12.5834 22.5166 11.2834 21.2166C9.98335 19.9166 9.33335 18.3444 9.33335 16.5C9.33335 14.6555 9.98335 13.0833 11.2834 11.7833C12.5834 10.4833 14.1556 9.83329 16 9.83329C17.8445 9.83329 19.4167 10.4833 20.7167 11.7833C22.0167 13.0833 22.6667 14.6555 22.6667 16.5V18.4333C22.6667 19.0111 22.8556 19.5 23.2334 19.9C23.6111 20.3 24.0889 20.5 24.6667 20.5C25.2445 20.5 25.7222 20.3 26.1 19.9C26.4778 19.5 26.6667 19.0111 26.6667 18.4333V16.5C26.6667 13.5222 25.6334 11 23.5667 8.93329C21.5 6.86663 18.9778 5.83329 16 5.83329C13.0222 5.83329 10.5 6.86663 8.43335 8.93329C6.36669 11 5.33335 13.5222 5.33335 16.5C5.33335 19.4777 6.36669 22 8.43335 24.0666C10.5 26.1333 13.0222 27.1666 16 27.1666H22.6667V29.8333H16ZM16 20.5C17.1111 20.5 18.0556 20.1111 18.8334 19.3333C19.6111 18.5555 20 17.6111 20 16.5C20 15.3888 19.6111 14.4444 18.8334 13.6666C18.0556 12.8888 17.1111 12.5 16 12.5C14.8889 12.5 13.9445 12.8888 13.1667 13.6666C12.3889 14.4444 12 15.3888 12 16.5C12 17.6111 12.3889 18.5555 13.1667 19.3333C13.9445 20.1111 14.8889 20.5 16 20.5Z" fill="#0058A8"/>
</g>
</svg>
