<svg width="29" height="28" viewBox="0 0 29 28" fill="none" xmlns="http://www.w3.org/2000/svg">
<mask id="mask0_16_1321" style="mask-type:alpha" maskUnits="userSpaceOnUse" x="0" y="0" width="29" height="28">
<rect x="0.666626" width="28" height="28" fill="white"/>
</mask>
<g mask="url(#mask0_16_1321)">
<path d="M15.7458 12.8916L10.7874 7.93329L12.4499 6.29995L15.7458 9.59579L22.3666 3.00412L23.9999 4.63745L15.7458 12.8916ZM8.83327 21.5833L16.9416 23.8L23.8833 21.6416C23.786 21.4666 23.6451 21.3159 23.4604 21.1895C23.2756 21.0632 23.0666 21 22.8333 21H16.9416C16.4166 21 15.9985 20.9805 15.6874 20.9416C15.3763 20.9027 15.0555 20.825 14.7249 20.7083L12.0124 19.8041L12.6541 17.5291L15.0166 18.3166C15.3472 18.4138 15.736 18.4916 16.1833 18.55C16.6305 18.6083 17.2916 18.6472 18.1666 18.6666C18.1666 18.4527 18.1034 18.2486 17.977 18.0541C17.8506 17.8597 17.6999 17.7333 17.5249 17.675L10.6999 15.1666H8.83327V21.5833ZM1.83327 25.6666V12.8333H10.6999C10.836 12.8333 10.9722 12.8479 11.1083 12.877C11.2444 12.9062 11.3708 12.9402 11.4874 12.9791L18.3416 15.5166C18.9833 15.75 19.5034 16.1583 19.902 16.7416C20.3006 17.325 20.4999 17.9666 20.4999 18.6666H22.8333C23.8055 18.6666 24.6319 18.9875 25.3124 19.6291C25.993 20.2708 26.3333 21.1166 26.3333 22.1666V23.3333L16.9999 26.25L8.83327 23.975V25.6666H1.83327ZM4.1666 23.3333H6.49993V15.1666H4.1666V23.3333Z" fill="white"/>
</g>
</svg>
