<svg width="33" height="32" viewBox="0 0 33 32" fill="none" xmlns="http://www.w3.org/2000/svg">
<mask id="mask0_23_3054" style="mask-type:alpha" maskUnits="userSpaceOnUse" x="0" y="0" width="33" height="32">
<rect x="0.5" width="32" height="32" fill="#D9D9D9"/>
</mask>
<g mask="url(#mask0_23_3054)">
<path d="M17.7333 10.9667L24.3666 4.36667C24.611 4.12222 24.9166 3.99444 25.2833 3.98333C25.6499 3.97222 25.9666 4.1 26.2333 4.36667C26.4777 4.61111 26.5999 4.92222 26.5999 5.3C26.5999 5.67778 26.4777 5.98889 26.2333 6.23333L18.6666 13.8C18.3999 14.0667 18.0888 14.2 17.7333 14.2C17.3777 14.2 17.0666 14.0667 16.7999 13.8L12.9999 10C12.7333 9.73333 12.6055 9.42222 12.6166 9.06667C12.6277 8.71111 12.7666 8.4 13.0333 8.13333C13.2999 7.88889 13.611 7.76111 13.9666 7.75C14.3221 7.73889 14.6333 7.86667 14.8999 8.13333L17.7333 10.9667ZM19.0999 27.2L27.0333 24.7333C26.9221 24.5333 26.761 24.3611 26.5499 24.2167C26.3388 24.0722 26.0999 24 25.8333 24H19.0999C18.4999 24 18.0221 23.9778 17.6666 23.9333C17.311 23.8889 16.9444 23.8 16.5666 23.6667L14.6666 23.0333C14.311 22.9222 14.0555 22.7 13.8999 22.3667C13.7444 22.0333 13.7221 21.6889 13.8333 21.3333C13.9444 20.9778 14.161 20.7167 14.4833 20.55C14.8055 20.3833 15.1444 20.3556 15.4999 20.4667L16.8999 20.9333C17.2777 21.0444 17.7055 21.1333 18.1833 21.2C18.661 21.2667 19.311 21.3111 20.1333 21.3333H20.4999C20.4999 21.0889 20.4277 20.8556 20.2833 20.6333C20.1388 20.4111 19.9666 20.2667 19.7666 20.2L11.9666 17.3333H9.83325V24.6667L19.0999 27.2ZM18.3999 29.8L9.83325 27.4C9.65547 27.9778 9.30547 28.4444 8.78325 28.8C8.26103 29.1556 7.72214 29.3333 7.16659 29.3333H4.49992C3.76659 29.3333 3.13881 29.0722 2.61659 28.55C2.09436 28.0278 1.83325 27.4 1.83325 26.6667V17.3333C1.83325 16.6 2.09436 15.9722 2.61659 15.45C3.13881 14.9278 3.76659 14.6667 4.49992 14.6667H11.9666C12.1221 14.6667 12.2777 14.6833 12.4333 14.7167C12.5888 14.75 12.7333 14.7889 12.8666 14.8333L20.6999 17.7333C21.4333 18 22.0277 18.4667 22.4833 19.1333C22.9388 19.8 23.1666 20.5333 23.1666 21.3333H25.8333C26.9444 21.3333 27.8888 21.7 28.6666 22.4333C29.4444 23.1667 29.8333 24.1333 29.8333 25.3333C29.8333 25.8222 29.7055 26.2056 29.4499 26.4833C29.1944 26.7611 28.7999 26.9889 28.2666 27.1667L19.9333 29.7667C19.6888 29.8556 19.4333 29.9 19.1666 29.9C18.8999 29.9 18.6444 29.8667 18.3999 29.8ZM4.49992 26.6667H7.16659V17.3333H4.49992V26.6667Z" fill="#2B2B30"/>
</g>
</svg>
