<svg width="32" height="33" viewBox="0 0 32 33" fill="none" xmlns="http://www.w3.org/2000/svg">
<mask id="mask0_19_1424" style="mask-type:alpha" maskUnits="userSpaceOnUse" x="0" y="0" width="32" height="33">
<rect y="0.5" width="32" height="32" fill="#0058A8"/>
</mask>
<g mask="url(#mask0_19_1424)">
<path d="M16 16.5C16.7333 16.5 17.3611 16.2388 17.8833 15.7166C18.4055 15.1944 18.6666 14.5666 18.6666 13.8333C18.6666 13.1 18.4055 12.4722 17.8833 11.95C17.3611 11.4277 16.7333 11.1666 16 11.1666C15.2666 11.1666 14.6389 11.4277 14.1166 11.95C13.5944 12.4722 13.3333 13.1 13.3333 13.8333C13.3333 14.5666 13.5944 15.1944 14.1166 15.7166C14.6389 16.2388 15.2666 16.5 16 16.5ZM16 26.3C18.7111 23.8111 20.7222 21.55 22.0333 19.5166C23.3444 17.4833 24 15.6777 24 14.1C24 11.6777 23.2278 9.6944 21.6833 8.14996C20.1389 6.60551 18.2444 5.83329 16 5.83329C13.7555 5.83329 11.8611 6.60551 10.3166 8.14996C8.7722 9.6944 7.99998 11.6777 7.99998 14.1C7.99998 15.6777 8.65554 17.4833 9.96665 19.5166C11.2778 21.55 13.2889 23.8111 16 26.3ZM16 29.8333C12.4222 26.7888 9.74998 23.9611 7.98331 21.35C6.21665 18.7388 5.33331 16.3222 5.33331 14.1C5.33331 10.7666 6.40554 8.11107 8.54998 6.13329C10.6944 4.15551 13.1778 3.16663 16 3.16663C18.8222 3.16663 21.3055 4.15551 23.45 6.13329C25.5944 8.11107 26.6666 10.7666 26.6666 14.1C26.6666 16.3222 25.7833 18.7388 24.0166 21.35C22.25 23.9611 19.5778 26.7888 16 29.8333Z" fill="#0058A8"/>
</g>
</svg>
