<svg width="28" height="28" viewBox="0 0 28 28" fill="none" xmlns="http://www.w3.org/2000/svg">
<mask id="mask0_16_1305" style="mask-type:alpha" maskUnits="userSpaceOnUse" x="0" y="0" width="28" height="28">
<rect width="28" height="28" fill="white"/>
</mask>
<g mask="url(#mask0_16_1305)">
<path d="M12.7751 15.575L18.5501 9.80004L16.8876 8.13754L12.7751 12.25L11.1417 10.6167L9.47925 12.2792L12.7751 15.575ZM14.0001 22.575C16.3723 20.3973 18.132 18.4188 19.2792 16.6396C20.4265 14.8605 21.0001 13.2806 21.0001 11.9C21.0001 9.7806 20.3244 8.04518 18.973 6.69379C17.6216 5.3424 15.964 4.66671 14.0001 4.66671C12.0362 4.66671 10.3786 5.3424 9.02716 6.69379C7.67578 8.04518 7.00008 9.7806 7.00008 11.9C7.00008 13.2806 7.57369 14.8605 8.72091 16.6396C9.86814 18.4188 11.6279 20.3973 14.0001 22.575ZM14.0001 25.6667C10.8695 23.0028 8.53133 20.5285 6.9855 18.2438C5.43966 15.9591 4.66675 13.8445 4.66675 11.9C4.66675 8.98337 5.60494 6.65976 7.48133 4.92921C9.35772 3.19865 11.5306 2.33337 14.0001 2.33337C16.4695 2.33337 18.6424 3.19865 20.5188 4.92921C22.3952 6.65976 23.3334 8.98337 23.3334 11.9C23.3334 13.8445 22.5605 15.9591 21.0147 18.2438C19.4688 20.5285 17.1306 23.0028 14.0001 25.6667Z" fill="white"/>
</g>
</svg>
