<svg width="33" height="32" viewBox="0 0 33 32" fill="none" xmlns="http://www.w3.org/2000/svg">
<mask id="mask0_23_3060" style="mask-type:alpha" maskUnits="userSpaceOnUse" x="0" y="0" width="33" height="32">
<rect x="0.666748" width="32" height="32" fill="#D9D9D9"/>
</mask>
<g mask="url(#mask0_23_3060)">
<path d="M3.33333 26.6667C2.95556 26.6667 2.63889 26.5389 2.38333 26.2833C2.12778 26.0278 2 25.7111 2 25.3333C2 24.9556 2.12778 24.6389 2.38333 24.3833C2.63889 24.1278 2.95556 24 3.33333 24H8.66667V21.3333H4.66667C4.28889 21.3333 3.97222 21.2056 3.71667 20.95C3.46111 20.6944 3.33333 20.3778 3.33333 20C3.33333 19.6222 3.46111 19.3056 3.71667 19.05C3.97222 18.7944 4.28889 18.6667 4.66667 18.6667H8.66667V16H6.06667C5.68889 16 5.37222 15.8722 5.11667 15.6167C4.86111 15.3611 4.73333 15.0444 4.73333 14.6667C4.73333 14.2889 4.86111 13.9722 5.11667 13.7167C5.37222 13.4611 5.68889 13.3333 6.06667 13.3333H8.66667V9.39999L6.63333 4.99999C6.47778 4.66666 6.46111 4.32777 6.58333 3.98333C6.70556 3.63888 6.93333 3.38888 7.26667 3.23333C7.6 3.07777 7.93889 3.06111 8.28333 3.18333C8.62778 3.30555 8.87778 3.53333 9.03333 3.86666L11.6 9.33333H27.0667L25.0333 4.99999C24.8778 4.66666 24.8611 4.32777 24.9833 3.98333C25.1056 3.63888 25.3333 3.38888 25.6667 3.23333C26 3.07777 26.3389 3.06111 26.6833 3.18333C27.0278 3.30555 27.2778 3.53333 27.4333 3.86666L29.7333 8.79999C29.8222 8.97777 29.8889 9.16111 29.9333 9.34999C29.9778 9.53888 30 9.73333 30 9.93333V24C30 24.7333 29.7389 25.3611 29.2167 25.8833C28.6944 26.4056 28.0667 26.6667 27.3333 26.6667H3.33333ZM16.6667 17.3333H22C22.3778 17.3333 22.6944 17.2056 22.95 16.95C23.2056 16.6944 23.3333 16.3778 23.3333 16C23.3333 15.6222 23.2056 15.3056 22.95 15.05C22.6944 14.7944 22.3778 14.6667 22 14.6667H16.6667C16.2889 14.6667 15.9722 14.7944 15.7167 15.05C15.4611 15.3056 15.3333 15.6222 15.3333 16C15.3333 16.3778 15.4611 16.6944 15.7167 16.95C15.9722 17.2056 16.2889 17.3333 16.6667 17.3333ZM11.3333 24H27.3333V12H11.3333V24Z" fill="#0058A8"/>
</g>
</svg>
 