<svg width="29" height="28" viewBox="0 0 29 28" fill="none" xmlns="http://www.w3.org/2000/svg">
<mask id="mask0_16_1327" style="mask-type:alpha" maskUnits="userSpaceOnUse" x="0" y="0" width="29" height="28">
<rect x="0.333252" width="28" height="28" fill="#D9D9D9"/>
</mask>
<g mask="url(#mask0_16_1327)">
<path d="M7.33326 23.3333C6.36103 23.3333 5.53465 22.993 4.85409 22.3125C4.17353 21.6319 3.83326 20.8055 3.83326 19.8333H1.49992V6.99999C1.49992 6.35832 1.7284 5.80902 2.18534 5.35207C2.64228 4.89513 3.19159 4.66666 3.83326 4.66666H20.1666V9.33332H23.6666L27.1666 14V19.8333H24.8333C24.8333 20.8055 24.493 21.6319 23.8124 22.3125C23.1319 22.993 22.3055 23.3333 21.3333 23.3333C20.361 23.3333 19.5346 22.993 18.8541 22.3125C18.1735 21.6319 17.8333 20.8055 17.8333 19.8333H10.8333C10.8333 20.8055 10.493 21.6319 9.81242 22.3125C9.13187 22.993 8.30548 23.3333 7.33326 23.3333ZM7.33326 21C7.66381 21 7.9409 20.8882 8.16451 20.6646C8.38812 20.441 8.49992 20.1639 8.49992 19.8333C8.49992 19.5028 8.38812 19.2257 8.16451 19.0021C7.9409 18.7785 7.66381 18.6667 7.33326 18.6667C7.0027 18.6667 6.72562 18.7785 6.50201 19.0021C6.2784 19.2257 6.16659 19.5028 6.16659 19.8333C6.16659 20.1639 6.2784 20.441 6.50201 20.6646C6.72562 20.8882 7.0027 21 7.33326 21ZM3.83326 17.5H4.76659C5.09715 17.15 5.47631 16.868 5.90409 16.6542C6.33187 16.4403 6.80826 16.3333 7.33326 16.3333C7.85826 16.3333 8.33465 16.4403 8.76242 16.6542C9.1902 16.868 9.56937 17.15 9.89992 17.5H17.8333V6.99999H3.83326V17.5ZM21.3333 21C21.6638 21 21.9409 20.8882 22.1645 20.6646C22.3881 20.441 22.4999 20.1639 22.4999 19.8333C22.4999 19.5028 22.3881 19.2257 22.1645 19.0021C21.9409 18.7785 21.6638 18.6667 21.3333 18.6667C21.0027 18.6667 20.7256 18.7785 20.502 19.0021C20.2784 19.2257 20.1666 19.5028 20.1666 19.8333C20.1666 20.1639 20.2784 20.441 20.502 20.6646C20.7256 20.8882 21.0027 21 21.3333 21ZM20.1666 15.1667H25.1249L22.4999 11.6667H20.1666V15.1667Z" fill="white"/>
</g>
</svg>
