<svg width="33" height="32" viewBox="0 0 33 32" fill="none" xmlns="http://www.w3.org/2000/svg">
<mask id="mask0_23_3036" style="mask-type:alpha" maskUnits="userSpaceOnUse" x="0" y="0" width="33" height="32">
<rect x="0.833252" width="32" height="32" fill="#D9D9D9"/>
</mask>
<g mask="url(#mask0_23_3036)">
<path d="M8.83317 26.6667C7.72206 26.6667 6.77762 26.2778 5.99984 25.5C5.22206 24.7222 4.83317 23.7778 4.83317 22.6667H3.49984C3.12206 22.6667 2.80539 22.5389 2.54984 22.2833C2.29428 22.0278 2.1665 21.7111 2.1665 21.3333V7.99999C2.1665 7.26666 2.42762 6.63888 2.94984 6.11666C3.47206 5.59444 4.09984 5.33333 4.83317 5.33333H20.8332C21.5665 5.33333 22.1943 5.59444 22.7165 6.11666C23.2387 6.63888 23.4998 7.26666 23.4998 7.99999V10.6667H26.1665C26.5887 10.6667 26.9887 10.7611 27.3665 10.95C27.7443 11.1389 28.0554 11.4 28.2998 11.7333L31.2332 15.6333C31.3221 15.7444 31.3887 15.8667 31.4332 16C31.4776 16.1333 31.4998 16.2778 31.4998 16.4333V21.3333C31.4998 21.7111 31.3721 22.0278 31.1165 22.2833C30.8609 22.5389 30.5443 22.6667 30.1665 22.6667H28.8332C28.8332 23.7778 28.4443 24.7222 27.6665 25.5C26.8887 26.2778 25.9443 26.6667 24.8332 26.6667C23.7221 26.6667 22.7776 26.2778 21.9998 25.5C21.2221 24.7222 20.8332 23.7778 20.8332 22.6667H12.8332C12.8332 23.7778 12.4443 24.7222 11.6665 25.5C10.8887 26.2778 9.94428 26.6667 8.83317 26.6667ZM8.83317 24C9.21095 24 9.52762 23.8722 9.78317 23.6167C10.0387 23.3611 10.1665 23.0444 10.1665 22.6667C10.1665 22.2889 10.0387 21.9722 9.78317 21.7167C9.52762 21.4611 9.21095 21.3333 8.83317 21.3333C8.45539 21.3333 8.13873 21.4611 7.88317 21.7167C7.62761 21.9722 7.49984 22.2889 7.49984 22.6667C7.49984 23.0444 7.62761 23.3611 7.88317 23.6167C8.13873 23.8722 8.45539 24 8.83317 24ZM4.83317 20H5.89984C6.27762 19.6 6.71095 19.2778 7.19984 19.0333C7.68873 18.7889 8.23317 18.6667 8.83317 18.6667C9.43317 18.6667 9.97761 18.7889 10.4665 19.0333C10.9554 19.2778 11.3887 19.6 11.7665 20H20.8332V7.99999H4.83317V20ZM24.8332 24C25.2109 24 25.5276 23.8722 25.7832 23.6167C26.0387 23.3611 26.1665 23.0444 26.1665 22.6667C26.1665 22.2889 26.0387 21.9722 25.7832 21.7167C25.5276 21.4611 25.2109 21.3333 24.8332 21.3333C24.4554 21.3333 24.1387 21.4611 23.8832 21.7167C23.6276 21.9722 23.4998 22.2889 23.4998 22.6667C23.4998 23.0444 23.6276 23.3611 23.8832 23.6167C24.1387 23.8722 24.4554 24 24.8332 24ZM23.4998 17.3333H29.1665L26.1665 13.3333H23.4998V17.3333Z" fill="#0058A8"/>
</g>
</svg>
 